<svg xmlns="http://www.w3.org/2000/svg" viewBox="0 0 24 24" fill="currentColor">
  <path d="M1.175 12.225c-.017 0-.033.002-.05.003.012-.166.023-.333.034-.499.05-.666.112-1.332.178-1.997.067-.665.135-1.33.208-1.994.027-.242.11-.456.317-.6.31-.21.69-.168.95.102.18.189.25.42.25.676v5.309c0 .389-.324.645-.675.645-.047 0-.094-.007-.14-.018a.616.616 0 0 1-.072-.627zm1.506 1.49c.055.006.11.01.167.01.547 0 .99-.44.99-.987V9.626a.987.987 0 0 0-1.974 0v3.122c0 .504.368.916.817.967zm2.064.287c.066.01.133.015.2.015.523 0 .952-.427.952-.953V9.35a.953.953 0 0 0-1.903 0v3.714c0 .491.35.897.751.938zm2.064-.014c.065.006.13.01.196.01a.916.916 0 0 0 .916-.916V9.086a.916.916 0 0 0-1.832 0v3.996c0 .473.338.864.72.906zm2.085-.24a.878.878 0 0 0 .178.018c.484 0 .877-.392.877-.876V8.694a.877.877 0 0 0-1.753 0v4.196c0 .454.32.826.698.858zm2.064.033a.84.84 0 0 0 .16.015c.463 0 .839-.376.839-.838V8.47a.839.839 0 0 0-1.677 0v4.488c0 .433.307.79.678.823zm2.064-.007c.051.004.103.007.155.007a.803.803 0 0 0 .803-.803V8.316a.803.803 0 0 0-1.605 0v4.722c0 .414.294.756.647.788zm2.087-.02c.047.003.095.005.143.005a.765.765 0 0 0 .765-.764V8.2a.765.765 0 0 0-1.529 0v4.888c0 .394.278.72.621.752zm1.74-5.5c-.37-1.838-1.99-3.22-3.94-3.22-1.09 0-2.08.44-2.8 1.15A4.974 4.974 0 0 0 12 6.1a4.95 4.95 0 0 0-3.558 1.51A4.93 4.93 0 0 0 7 11.1a4.95 4.95 0 0 0 4.95 4.95h8.1A2.95 2.95 0 0 0 23 13.1a2.952 2.952 0 0 0-2.152-2.846z"/>
</svg>
